<svg xmlns="http://www.w3.org/2000/svg" width="32" height="32" id="link">
  <g color="#000" font-family="sans-serif" font-weight="400">
    <path fill="#f05542" d="M-983.484 50.992a5.317 5.317 0 0 0-2.534.725l-5.81 3.383a5.39 5.39 0 0 0-2.639 5.302.5.5 0 0 0 .748.373l2.346-1.365a.5.5 0 0 0 .225-.281c.161-.506.497-.957.998-1.248l5.697-3.315c1.056-.614 2.349-.278 2.935.746.587 1.025.229 2.331-.828 2.946l-5.697 3.316c-.5.291-1.051.358-1.564.246a.5.5 0 0 0-.358.057l-2.347 1.365a.5.5 0 0 0-.051.832 5.312 5.312 0 0 0 5.884.35l5.811-3.381c2.558-1.489 3.43-4.78 1.955-7.356a5.33 5.33 0 0 0-4.771-2.695zm.027.998a4.322 4.322 0 0 1 3.877 2.196 4.387 4.387 0 0 1-1.592 5.992l-5.81 3.383c-1.28.744-2.705.606-3.94.029l1.46-.848c.642.065 1.313.05 1.92-.304l5.698-3.317c1.51-.879 2.055-2.805 1.196-4.305-.86-1.5-2.799-1.992-4.31-1.113l-5.694 3.315c-.61.354-.96.933-1.225 1.527l-1.445.842c.124-1.368.718-2.68 1.996-3.424l5.81-3.383c.654-.38 1.36-.57 2.059-.59zm-15.525 8.02a5.318 5.318 0 0 0-2.534.726l-5.81 3.381c-2.558 1.489-3.433 4.778-1.957 7.354 1.475 2.575 4.748 3.461 7.306 1.972l5.811-3.382a5.389 5.389 0 0 0 2.637-5.303.5.5 0 0 0-.748-.373l-2.342 1.363a.5.5 0 0 0-.225.281 2.209 2.209 0 0 1-1 1.248l-5.697 3.315c-1.056.614-2.349.278-2.936-.746-.586-1.024-.226-2.33.83-2.946l5.696-3.314a2.17 2.17 0 0 1 1.566-.248.5.5 0 0 0 .36-.057l2.343-1.365a.5.5 0 0 0 .051-.83 5.313 5.313 0 0 0-3.35-1.076.5.5 0 0 0-.001 0zm.027 1c.656-.018 1.239.317 1.834.588l-1.408.82c-.644-.066-1.318-.051-1.926.303l-5.695 3.316c-1.51.88-2.053 2.805-1.194 4.305.86 1.5 2.796 1.994 4.307 1.115l5.695-3.316c.61-.355.96-.933 1.225-1.528l1.445-.84c-.124 1.368-.72 2.68-1.998 3.424l-5.81 3.381c-2.093 1.218-4.724.508-5.934-1.603a4.386 4.386 0 0 1 1.59-5.993l5.81-3.382c.654-.38 1.36-.571 2.059-.59z" overflow="visible" style="line-height:normal;text-indent:0;text-align:start;text-decoration-line:none;text-decoration-style:solid;text-decoration-color:#000;text-transform:none;block-progression:tb;isolation:auto;mix-blend-mode:normal" transform="translate(1010 -46.357)"></path>
    <path fill="#f05542" d="M-989.246 57.834a2.545 2.545 0 0 0-1.883.277l-8.082 4.703c-1.184.69-1.635 2.193-.967 3.36.669 1.166 2.193 1.527 3.377.838l8.084-4.705c1.184-.69 1.633-2.191.965-3.358a2.35 2.35 0 0 0-1.494-1.115zm-.244.96c.36.088.676.314.87.653.39.68.14 1.565-.6 1.996l-8.083 4.703c-.741.432-1.619.209-2.008-.47-.388-.68-.14-1.565.602-1.996l8.084-4.703c.37-.216.774-.269 1.135-.182z" overflow="visible" style="line-height:normal;text-indent:0;text-align:start;text-decoration-line:none;text-decoration-style:solid;text-decoration-color:#000;text-transform:none;block-progression:tb;isolation:auto;mix-blend-mode:normal" transform="translate(1010 -46.357)"></path>
    <path fill="#2b4255" fill-rule="evenodd" d="M-994.498 49.803v2.256h1v-2.256h-1zm0 23.299v2.255h1v-2.255h-1zm10.715-8.282-.262.965 2.16.584.262-.965-2.16-.584zm-22.328-6.029-.26.965 2.16.584.26-.967-2.16-.582zm16.963 13.123-.909.418.942 2.047.908-.42-.941-2.045zm-9.73-21.133-.91.418.942 2.045.909-.418-.942-2.045zm12.817 18.657-.687.724 1.627 1.547.687-.725-1.627-1.546zm-16.812-15.989-.69.725 1.627 1.547.69-.725-1.627-1.547z" overflow="visible" style="line-height:normal;text-indent:0;text-align:start;text-decoration-line:none;text-decoration-style:solid;text-decoration-color:#000;text-transform:none;block-progression:tb;isolation:auto;mix-blend-mode:normal" transform="translate(1010 -46.357)"></path>
  </g>
</svg>
